<?xml version="1.0" encoding="UTF-8"?>
<svg version="1.1" xmlns="http://www.w3.org/2000/svg" width="128" height="128">
<path d="M0 0 C2.50160818 1.87620613 3.61945652 3.23891303 5 6 C5.65643153 13.71307045 4.03244927 21.98079597 -1 28 C-0.01 28.33 0.98 28.66 2 29 C2 29.66 2 30.32 2 31 C2.59554687 31.25136719 3.19109375 31.50273437 3.8046875 31.76171875 C8.77062831 34.56279213 12.43849475 40.60570914 14 46 C14.99569448 50.84859922 15.12034283 55.45390962 15.0625 60.375 C15.05798828 61.11105469 15.05347656 61.84710938 15.04882812 62.60546875 C15.03715142 64.40368158 15.01922011 66.20185197 15 68 C15.66 68 16.32 68 17 68 C18.125 70.8125 18.125 70.8125 19 74 C18.34 74.99 17.68 75.98 17 77 C16.01 77 15.02 77 14 77 C14.020625 78.11375 14.04125 79.2275 14.0625 80.375 C14.0625 86.38368584 13.46181229 92.33175119 12.4375 98.25 C11.25949944 108.34714763 11.96292592 118.06926384 14 128 C-1.14887892 129.22690583 -1.14887892 129.22690583 -5.6875 126.21875 C-7.37835691 124.21790266 -8.67062388 122.24626851 -10 120 C-10.28375488 120.57169922 -10.56750977 121.14339844 -10.85986328 121.73242188 C-12.37803882 124.27474142 -13.73324433 126.07919565 -16 128 C-20.32428197 129.00557778 -24.46455336 128.7588524 -28.875 128.5 C-30.0403125 128.46390625 -31.205625 128.4278125 -32.40625 128.390625 C-35.27422052 128.29659318 -38.1354014 128.16532645 -41 128 C-40.72067627 127.47543213 -40.44135254 126.95086426 -40.15356445 126.41040039 C-36.82175269 119.98945255 -35.44499975 114.81562671 -36.5 107.5625 C-37.2497555 102.22049209 -36.65617544 96.97567932 -35.49609375 91.71484375 C-34.82647414 88.05038997 -34.64004877 84.40310773 -34.4375 80.6875 C-34.39431641 79.94693359 -34.35113281 79.20636719 -34.30664062 78.44335938 C-34.20129568 76.62908536 -34.10021684 74.8145645 -34 73 C-35.90845703 73.05220703 -35.90845703 73.05220703 -37.85546875 73.10546875 C-41.7109375 73.2109375 -41.7109375 73.2109375 -44.3125 71.3125 C-49.10135135 64.75 -49.10135135 64.75 -48.6875 61.6875 C-48.460625 61.130625 -48.23375 60.57375 -48 60 C-47.34 60 -46.68 60 -46 60 C-46.12375 58.515 -46.12375 58.515 -46.25 57 C-46.25 52.29343733 -44.24173477 49.02283911 -42 45 C-41.03222784 42.99001167 -40.07651629 40.97475554 -39.125 38.95703125 C-36.06569302 33.63511181 -32.38173336 30.66464842 -27.0625 27.75 C-26.15081055 27.2240625 -26.15081055 27.2240625 -25.22070312 26.6875 C-21.84533519 24.79408973 -18.84792572 23.49650654 -15 23 C-15.03480469 21.98679687 -15.06960937 20.97359375 -15.10546875 19.9296875 C-15.13362595 18.5781417 -15.16092403 17.22657781 -15.1875 15.875 C-15.21263672 15.20984375 -15.23777344 14.5446875 -15.26367188 13.859375 C-15.3332236 9.12985758 -14.53781286 5.98714654 -12 2 C-7.9983959 -0.66773607 -4.70568852 -0.71478813 0 0 Z " fill="#1A1915" transform="translate(79,0)"/>
<path d="M0 0 C1.21236328 0.02707031 1.21236328 0.02707031 2.44921875 0.0546875 C3.37154297 0.08949219 3.37154297 0.08949219 4.3125 0.125 C5.56683458 3.88800374 5.41945422 7.39710909 5.375 11.3125 C5.37048828 12.06208984 5.36597656 12.81167969 5.36132812 13.58398438 C5.34956354 15.43102383 5.33162865 17.27802213 5.3125 19.125 C3.3325 19.785 1.3525 20.445 -0.6875 21.125 C-0.6875 21.785 -0.6875 22.445 -0.6875 23.125 C-0.0275 23.455 0.6325 23.785 1.3125 24.125 C-0.6675 24.125 -2.6475 24.125 -4.6875 24.125 C-4.6875 23.465 -4.6875 22.805 -4.6875 22.125 C-5.6775 22.125 -6.6675 22.125 -7.6875 22.125 C-6.3675 24.765 -5.0475 27.405 -3.6875 30.125 C-4.45835938 30.0528125 -5.22921875 29.980625 -6.0234375 29.90625 C-7.02632812 29.8134375 -8.02921875 29.720625 -9.0625 29.625 C-10.55910156 29.48578125 -10.55910156 29.48578125 -12.0859375 29.34375 C-14.58453736 29.09707053 -14.58453736 29.09707053 -16.6875 29.125 C-17.3475 31.105 -18.0075 33.085 -18.6875 35.125 C-26.4375 36.125 -26.4375 36.125 -28.6875 36.125 C-28.6875 36.785 -28.6875 37.445 -28.6875 38.125 C-29.450625 38.49625 -30.21375 38.8675 -31 39.25 C-34.31410941 41.56216936 -34.78959238 43.32096844 -35.99609375 47.05078125 C-36.94270078 49.89060233 -38.29859417 52.47946508 -39.6875 55.125 C-38.6975 55.455 -37.7075 55.785 -36.6875 56.125 C-37.6775 58.6 -37.6775 58.6 -38.6875 61.125 C-40.0075 61.125 -41.3275 61.125 -42.6875 61.125 C-42.6875 62.775 -42.6875 64.425 -42.6875 66.125 C-43.3475 65.465 -44.0075 64.805 -44.6875 64.125 C-44.3125 62 -44.3125 62 -43.6875 60.125 C-43.0275 60.125 -42.3675 60.125 -41.6875 60.125 C-41.81125 58.64 -41.81125 58.64 -41.9375 57.125 C-41.9375 52.41843733 -39.92923477 49.14783911 -37.6875 45.125 C-36.71972784 43.11501167 -35.76401629 41.09975554 -34.8125 39.08203125 C-31.75319302 33.76011181 -28.06923336 30.78964842 -22.75 27.875 C-21.83831055 27.3490625 -21.83831055 27.3490625 -20.90820312 26.8125 C-17.53283519 24.91908973 -14.53542572 23.62150654 -10.6875 23.125 C-10.72230469 22.11179687 -10.75710937 21.09859375 -10.79296875 20.0546875 C-10.82112595 18.7031417 -10.84842403 17.35157781 -10.875 16 C-10.90013672 15.33484375 -10.92527344 14.6696875 -10.95117188 13.984375 C-11.0207236 9.25485758 -10.22531286 6.11214654 -7.6875 2.125 C-4.48369983 -0.01086678 -3.66810033 -0.10632175 0 0 Z " fill="#83432C" transform="translate(74.6875,-0.125)"/>
<path d="M0 0 C1.65 0 3.3 0 5 0 C7.84971844 4.45268506 7.47313413 8.71210483 6.4296875 13.7578125 C5.22369016 18.51832832 4.19176382 22.18240013 1 26 C1.99 26.33 2.98 26.66 4 27 C4 27.66 4 28.32 4 29 C4.59554687 29.25136719 5.19109375 29.50273437 5.8046875 29.76171875 C10.28702847 32.29001428 13.0318622 37.15173693 15.375 41.625 C16.12762796 44.48498627 16.13693486 47.0559006 16 50 C12 42.28571429 12 42.28571429 12 38 C11.01 38 10.02 38 9 38 C8.71125 37.195625 8.4225 36.39125 8.125 35.5625 C7.26737432 32.8673532 7.26737432 32.8673532 5 32 C5 31.34 5 30.68 5 30 C4.34 30 3.68 30 3 30 C3 29.34 3 28.68 3 28 C-1.95 28.495 -1.95 28.495 -7 29 C-8.23921302 26.02588876 -9.30058404 23.14737182 -10 20 C-9.01 20 -8.02 20 -7 20 C-7 20.66 -7 21.32 -7 22 C-5.68 21.67 -4.36 21.34 -3 21 C-3 20.34 -3 19.68 -3 19 C-3.66 18.34 -4.32 17.68 -5 17 C-2.36 17 0.28 17 3 17 C3 15.02 3 13.04 3 11 C2.34 10.67 1.68 10.34 1 10 C1 9.34 1 8.68 1 8 C1.66 8 2.32 8 3 8 C3 5.69 3 3.38 3 1 C2.01 0.67 1.02 0.34 0 0 Z " fill="#5B3024" transform="translate(77,2)"/>
<path d="M0 0 C1.65 0.33 3.3 0.66 5 1 C5.10777074 5.95745417 4.77740624 10.74093111 4.21875 15.66796875 C3.93773842 18.27337485 3.93773842 18.27337485 4 22 C3.01 22 2.02 22 1 22 C0.9175 22.78375 0.835 23.5675 0.75 24.375 C0 27 0 27 -2.0625 28.3125 C-2.701875 28.539375 -3.34125 28.76625 -4 29 C-4 29.66 -4 30.32 -4 31 C-4.66 31 -5.32 31 -6 31 C-6.33 29.35 -6.66 27.7 -7 26 C-7.33 26.66 -7.66 27.32 -8 28 C-8.99 27.67 -9.98 27.34 -11 27 C-9.88096454 25.18381144 -8.75458716 23.37214474 -7.625 21.5625 C-6.99851562 20.55316406 -6.37203125 19.54382813 -5.7265625 18.50390625 C-4 16 -4 16 -2 15 C-1.56797133 12.28464093 -1.56797133 12.28464093 -1.4375 9.125 C-1.24113676 5.79884716 -1.05624392 3.16873175 0 0 Z " fill="#945C44" transform="translate(88,77)"/>
<path d="M0 0 C2.5625 0.1875 2.5625 0.1875 5.5625 1.1875 C7.11893549 1.20303817 8.67650687 1.15548687 10.23046875 1.06640625 C11.12314453 1.01806641 12.01582031 0.96972656 12.93554688 0.91992188 C13.86431641 0.86384766 14.79308594 0.80777344 15.75 0.75 C16.69037109 0.69779297 17.63074219 0.64558594 18.59960938 0.59179688 C20.92091501 0.46218082 23.24178409 0.32721819 25.5625 0.1875 C25.8925 1.1775 26.2225 2.1675 26.5625 3.1875 C25.2425 3.5175 23.9225 3.8475 22.5625 4.1875 C25.5325 4.6825 25.5325 4.6825 28.5625 5.1875 C28.5625 5.8475 28.5625 6.5075 28.5625 7.1875 C20.80756486 7.28678082 13.25181285 7.24809488 5.5625 6.1875 C5.5625 7.8375 5.5625 9.4875 5.5625 11.1875 C4.9025 10.8575 4.2425 10.5275 3.5625 10.1875 C3.5625 9.5275 3.5625 8.8675 3.5625 8.1875 C1.8609375 8.4659375 1.8609375 8.4659375 0.125 8.75 C-1.6384375 8.9665625 -1.6384375 8.9665625 -3.4375 9.1875 C-4.4375 8.1875 -4.4375 8.1875 -4.625 5.25 C-4.39490317 1.49175176 -3.8638339 0.29721799 0 0 Z " fill="#8C5547" transform="translate(41.4375,59.8125)"/>
<path d="M0 0 C1.21236328 0.02707031 1.21236328 0.02707031 2.44921875 0.0546875 C3.37154297 0.08949219 3.37154297 0.08949219 4.3125 0.125 C4.6425 1.775 4.9725 3.425 5.3125 5.125 C4.3225 5.455 3.3325 5.785 2.3125 6.125 C1.57926204 8.14008358 1.57926204 8.14008358 1.3125 10.125 C-1.6575 9.63 -1.6575 9.63 -4.6875 9.125 C-4.3575 10.445 -4.0275 11.765 -3.6875 13.125 C-1.0475 13.785 1.5925 14.445 4.3125 15.125 C4.3125 15.455 4.3125 15.785 4.3125 16.125 C2.87609829 16.32073608 1.43830496 16.50627816 0 16.6875 C-0.80050781 16.79191406 -1.60101563 16.89632813 -2.42578125 17.00390625 C-4.6875 17.125 -4.6875 17.125 -7.6875 16.125 C-7.6875 16.785 -7.6875 17.445 -7.6875 18.125 C-8.6775 17.795 -9.6675 17.465 -10.6875 17.125 C-11.03399648 11.35005861 -10.98476646 7.13196018 -7.6875 2.125 C-4.48369983 -0.01086678 -3.66810033 -0.10632175 0 0 Z " fill="#AA7763" transform="translate(74.6875,-0.125)"/>
<path d="M0 0 C6.6 0 13.2 0 20 0 C20 0.33 20 0.66 20 1 C18.35 1 16.7 1 15 1 C14.67 1.99 14.34 2.98 14 4 C16.475 4.495 16.475 4.495 19 5 C19 5.66 19 6.32 19 7 C13.84166818 7.09049705 9.11217865 6.77982386 4 6 C0.33621365 5.63262847 -3.33110381 5.311823 -7 5 C-7 4.01 -7 3.02 -7 2 C-5.35 2 -3.7 2 -2 2 C-1.67 2.66 -1.34 3.32 -1 4 C-0.67 2.68 -0.34 1.36 0 0 Z " fill="#65402C" transform="translate(47,66)"/>
<path d="M0 0 C-0.99 1.485 -0.99 1.485 -2 3 C-1.01 3.33 -0.02 3.66 1 4 C1 4.66 1 5.32 1 6 C1.59554687 6.25136719 2.19109375 6.50273437 2.8046875 6.76171875 C7.28702847 9.29001428 10.0318622 14.15173693 12.375 18.625 C13.12762796 21.48498627 13.13693486 24.0559006 13 27 C9 19.28571429 9 19.28571429 9 15 C8.01 15 7.02 15 6 15 C5.71125 14.195625 5.4225 13.39125 5.125 12.5625 C4.26737432 9.8673532 4.26737432 9.8673532 2 9 C2 8.34 2 7.68 2 7 C1.34 7 0.68 7 0 7 C0 6.34 0 5.68 0 5 C-3.3 5.33 -6.6 5.66 -10 6 C-10 4.02 -10 2.04 -10 0 C-3.375 -1.125 -3.375 -1.125 0 0 Z " fill="#3F2D1D" transform="translate(80,25)"/>
<path d="M0 0 C1.32 0 2.64 0 4 0 C4 0.66 4 1.32 4 2 C4.66 2.33 5.32 2.66 6 3 C3.69 3 1.38 3 -1 3 C-1 3.66 -1 4.32 -1 5 C-2.1446875 5.556875 -2.1446875 5.556875 -3.3125 6.125 C-6.62660941 8.43716936 -7.10209238 10.19596844 -8.30859375 13.92578125 C-9.25520078 16.76560233 -10.61109417 19.35446508 -12 22 C-11.01 22.33 -10.02 22.66 -9 23 C-9.99 25.475 -9.99 25.475 -11 28 C-12.32 28 -13.64 28 -15 28 C-15 29.65 -15 31.3 -15 33 C-15.66 32.34 -16.32 31.68 -17 31 C-16.625 28.875 -16.625 28.875 -16 27 C-15.34 27 -14.68 27 -14 27 C-14.0825 26.01 -14.165 25.02 -14.25 24 C-14.25 20.0743586 -13.02151486 17.44637106 -11.1328125 14.05859375 C-9.96022996 12.0085484 -9.96022996 12.0085484 -9.0546875 9.78515625 C-6.70489064 4.32533414 -6.70489064 4.32533414 -2.75 2.5 C-1.38875 2.2525 -1.38875 2.2525 0 2 C0 1.34 0 0.68 0 0 Z " fill="#3D3D3C" transform="translate(47,33)"/>
<path d="M0 0 C0.99 0 1.98 0 3 0 C2.7525 0.9075 2.505 1.815 2.25 2.75 C2.1675 3.8225 2.085 4.895 2 6 C3.85432087 8.27144074 3.85432087 8.27144074 6 10 C6 10.66 6 11.32 6 12 C4.700625 11.814375 3.40125 11.62875 2.0625 11.4375 C-0.08575543 11.1018371 -0.08575543 11.1018371 -2 11 C-2.33 11.33 -2.66 11.66 -3 12 C-4.99958364 12.04080783 -7.00045254 12.04254356 -9 12 C-7.68 11.67 -6.36 11.34 -5 11 C-4.67 9.68 -4.34 8.36 -4 7 C-4.66 6.67 -5.32 6.34 -6 6 C-5.67 5.01 -5.34 4.02 -5 3 C-3.35 2.67 -1.7 2.34 0 2 C0 1.34 0 0.68 0 0 Z " fill="#26241F" transform="translate(41,50)"/>
<path d="M0 0 C0.66 0.66 1.32 1.32 2 2 C4.58354218 2.16687448 4.58354218 2.16687448 7 2 C6.75 4.875 6.75 4.875 6 8 C3.9375 9.375 3.9375 9.375 2 10 C2 10.66 2 11.32 2 12 C1.34 12 0.68 12 0 12 C-0.33 10.35 -0.66 8.7 -1 7 C-1.33 7.66 -1.66 8.32 -2 9 C-2.99 8.67 -3.98 8.34 -5 8 C-3.35 5.36 -1.7 2.72 0 0 Z " fill="#6F3726" transform="translate(82,96)"/>
<path d="M0 0 C0.33 1.32 0.66 2.64 1 4 C-0.60032137 4.84069415 -2.20541171 5.67231505 -3.8125 6.5 C-4.70582031 6.9640625 -5.59914063 7.428125 -6.51953125 7.90625 C-9 9 -9 9 -12 9 C-11.65213292 10.97536745 -11.65213292 10.97536745 -11 13 C-10.34 13.33 -9.68 13.66 -9 14 C-10.32 14.33 -11.64 14.66 -13 15 C-13 14.34 -13 13.68 -13 13 C-14.32 13 -15.64 13 -17 13 C-17 13.66 -17 14.32 -17 15 C-18.32 15.33 -19.64 15.66 -21 16 C-19.52387171 11.53144837 -16.08773691 9.94462951 -12.1875 7.8125 C-11.57068359 7.45736328 -10.95386719 7.10222656 -10.31835938 6.73632812 C-6.91142109 4.82829786 -3.88431059 3.49571202 0 3 C0 2.01 0 1.02 0 0 Z " fill="#7E7C79" transform="translate(64,20)"/>
<path d="M0 0 C0.66 0.33 1.32 0.66 2 1 C2.44921875 2.8125 2.44921875 2.8125 2.6875 5 C2.77386719 5.721875 2.86023437 6.44375 2.94921875 7.1875 C2.97435547 8.0846875 2.97435547 8.0846875 3 9 C2.67 9.33 2.34 9.66 2 10 C1.44049636 12.3452769 0.92670421 14.70155796 0.4375 17.0625 C0.16808594 18.35285156 -0.10132813 19.64320312 -0.37890625 20.97265625 C-0.58386719 21.97167969 -0.78882813 22.97070312 -1 24 C-1.66 24 -2.32 24 -3 24 C-2.29563752 15.95543903 -1.18531495 7.98649105 0 0 Z " fill="#2B2C2A" transform="translate(45,80)"/>
<path d="M0 0 C2.97 0 5.94 0 9 0 C9.33 0.99 9.66 1.98 10 3 C9.67 3.66 9.34 4.32 9 5 C9.66 5 10.32 5 11 5 C11.33 6.32 11.66 7.64 12 9 C9.36 9.33 6.72 9.66 4 10 C4 10.66 4 11.32 4 12 C2.68 11.67 1.36 11.34 0 11 C0.66 10.01 1.32 9.02 2 8 C3.9453125 7.70703125 3.9453125 7.70703125 6.125 7.8125 C7.40375 7.874375 8.6825 7.93625 10 8 C10 7.34 10 6.68 10 6 C8.576875 6.061875 8.576875 6.061875 7.125 6.125 C4 6 4 6 2 4 C3.98 4 5.96 4 8 4 C7.67 3.34 7.34 2.68 7 2 C4.67843403 1.59270772 2.3431213 1.25561323 0 1 C0 0.67 0 0.34 0 0 Z " fill="#32190E" transform="translate(60,59)"/>
<path d="M0 0 C2.97 0 5.94 0 9 0 C9 1.65 9 3.3 9 5 C5.32589215 6.17571451 1.83070817 6.07366746 -2 6 C-2.33 6.66 -2.66 7.32 -3 8 C-3.66 6.35 -4.32 4.7 -5 3 C-4.01 3 -3.02 3 -2 3 C-2 3.66 -2 4.32 -2 5 C-0.68 4.67 0.64 4.34 2 4 C2 3.34 2 2.68 2 2 C1.34 1.34 0.68 0.68 0 0 Z " fill="#5F381A" transform="translate(72,19)"/>
<path d="M0 0 C0.99 0 1.98 0 3 0 C3 1.65 3 3.3 3 5 C2.01 5.33 1.02 5.66 0 6 C-0.33 6.99 -0.66 7.98 -1 9 C-3.375 9.1875 -3.375 9.1875 -6 9 C-6.66 8.01 -7.32 7.02 -8 6 C-7.67 5.34 -7.34 4.68 -7 4 C-4.03 4.495 -4.03 4.495 -1 5 C-0.67 3.35 -0.34 1.7 0 0 Z " fill="#9F5939" transform="translate(77,5)"/>
<path d="M0 0 C1.32 0.33 2.64 0.66 4 1 C4 1.66 4 2.32 4 3 C4.59554687 3.25136719 5.19109375 3.50273437 5.8046875 3.76171875 C10.28702847 6.29001428 13.0318622 11.15173693 15.375 15.625 C16.12762796 18.48498627 16.13693486 21.0559006 16 24 C12 16.28571429 12 16.28571429 12 12 C11.01 12 10.02 12 9 12 C8.71125 11.195625 8.4225 10.39125 8.125 9.5625 C7.26737432 6.8673532 7.26737432 6.8673532 5 6 C5 5.34 5 4.68 5 4 C4.34 4 3.68 4 3 4 C1.375 2 1.375 2 0 0 Z " fill="#343433" transform="translate(77,28)"/>
<path d="M0 0 C6.6 0 13.2 0 20 0 C20 0.33 20 0.66 20 1 C18.35 1 16.7 1 15 1 C15 1.66 15 2.32 15 3 C10.05 3 5.1 3 0 3 C0 2.01 0 1.02 0 0 Z " fill="#733B29" transform="translate(47,66)"/>
<path d="M0 0 C1.65 0.33 3.3 0.66 5 1 C5 2.32 5 3.64 5 5 C4.01 5.33 3.02 5.66 2 6 C1.26676204 8.01508358 1.26676204 8.01508358 1 10 C-0.65 9.67 -2.3 9.34 -4 9 C-3.35455571 5.51460083 -1.89865603 2.97180943 0 0 Z " fill="#AA6C4E" transform="translate(75,0)"/>
<path d="M0 0 C0.66 0.33 1.32 0.66 2 1 C2.25706972 6.91260345 1.2982126 12.23918159 0 18 C-0.66 18 -1.32 18 -2 18 C-1.85946128 15.37461716 -1.71281053 12.74982573 -1.5625 10.125 C-1.52318359 9.37863281 -1.48386719 8.63226563 -1.44335938 7.86328125 C-1.11328125 2.2265625 -1.11328125 2.2265625 0 0 Z " fill="#6E3E2E" transform="translate(91,77)"/>
<path d="M0 0 C0.33 0.99 0.66 1.98 1 3 C-0.32 3 -1.64 3 -3 3 C-3.33 5.64 -3.66 8.28 -4 11 C-4.99 11 -5.98 11 -7 11 C-8 8 -8 8 -6.75 4.9375 C-4.96194124 1.93611565 -3.71921529 0 0 0 Z " fill="#6F5B51" transform="translate(72,0)"/>
<path d="M0 0 C0.66 0.33 1.32 0.66 2 1 C2 1.66 2 2.32 2 3 C3.65 3 5.3 3 7 3 C7 4.32 7 5.64 7 7 C4.6739143 7.38063221 2.33944736 7.71269945 0 8 C-1 7 -1 7 -1.125 4 C-1 1 -1 1 0 0 Z " fill="#6F4B3D" transform="translate(38,61)"/>
<path d="M0 0 C1.98 0 3.96 0 6 0 C5.01 0.33 4.02 0.66 3 1 C2.95101562 2.07121094 2.90203125 3.14242187 2.8515625 4.24609375 C2.77654706 5.64325639 2.7009987 7.0403905 2.625 8.4375 C2.5940625 9.14455078 2.563125 9.85160156 2.53125 10.58007812 C2.42719371 12.39239188 2.22080108 14.19817988 2 16 C1.34 16.33 0.68 16.66 0 17 C0 11.39 0 5.78 0 0 Z " fill="#51331A" transform="translate(85,76)"/>
<path d="M0 0 C0.33 0.99 0.66 1.98 1 3 C-0.98 3.33 -2.96 3.66 -5 4 C-5.66 5.98 -6.32 7.96 -7 10 C-9.7839183 8.60804085 -9.97898997 6.84424221 -11 4 C-9.5437455 3.32880451 -8.08492133 2.66318193 -6.625 2 C-5.81289063 1.62875 -5.00078125 1.2575 -4.1640625 0.875 C-2 0 -2 0 0 0 Z " fill="#3B3B39" transform="translate(63,25)"/>
<path d="M0 0 C1.65 0 3.3 0 5 0 C4.67 1.32 4.34 2.64 4 4 C4 3.34 4 2.68 4 2 C3.01 2 2.02 2 1 2 C2.32 4.64 3.64 7.28 5 10 C1.31245243 9.50168276 -0.60490662 8.89932357 -3 6 C-2.34 5.67 -1.68 5.34 -1 5 C-0.34444881 2.47266765 -0.34444881 2.47266765 0 0 Z " fill="#714133" transform="translate(66,20)"/>
<path d="M0 0 C1 2 1 2 1.4375 5 C1.72715994 8.10361588 1.72715994 8.10361588 4 10 C3.34 10 2.68 10 2 10 C2 10.66 2 11.32 2 12 C1.34 12 0.68 12 0 12 C-0.33 10.35 -0.66 8.7 -1 7 C-1.33 7.66 -1.66 8.32 -2 9 C-2.99 8.67 -3.98 8.34 -5 8 C-3.35 5.36 -1.7 2.72 0 0 Z " fill="#57302D" transform="translate(82,96)"/>
<path d="M0 0 C3.14624993 -0.26218749 4.61837017 -0.24754367 7.3125 1.5 C8.1478125 2.2425 8.1478125 2.2425 9 3 C8.34 4.65 7.68 6.3 7 8 C6.67 6.68 6.34 5.36 6 4 C4.35 4 2.7 4 1 4 C0.67 2.68 0.34 1.36 0 0 Z " fill="#C49587" transform="translate(39,60)"/>
<path d="M0 0 C1.65 0 3.3 0 5 0 C5.33 0.66 5.66 1.32 6 2 C6.99 1.67 7.98 1.34 9 1 C9.99 1.66 10.98 2.32 12 3 C11.67 3.33 11.34 3.66 11 4 C9.14227838 3.91015699 7.28752015 3.75388139 5.4375 3.5625 C3.91962891 3.40974609 3.91962891 3.40974609 2.37109375 3.25390625 C1.58863281 3.17011719 0.80617187 3.08632812 0 3 C0 2.01 0 1.02 0 0 Z " fill="#473323" transform="translate(40,68)"/>
<path d="M0 0 C2.475 0.99 2.475 0.99 5 2 C4.67 2.99 4.34 3.98 4 5 C2.68 5 1.36 5 0 5 C0 6.65 0 8.3 0 10 C-0.66 9.67 -1.32 9.34 -2 9 C-1.34 6.03 -0.68 3.06 0 0 Z " fill="#9F7058" transform="translate(47,61)"/>
<path d="M0 0 C0.66 0.33 1.32 0.66 2 1 C-0.40171684 4.25947285 -2.20903625 6.4836145 -6 8 C-6.99 8.495 -6.99 8.495 -8 9 C-7.8125 7.125 -7.8125 7.125 -7 5 C-4.4375 3.75 -4.4375 3.75 -2 3 C-2 2.34 -2 1.68 -2 1 C-1.34 0.67 -0.68 0.34 0 0 Z " fill="#292A26" transform="translate(48,35)"/>
<path d="M0 0 C1.98 0 3.96 0 6 0 C6 0.66 6 1.32 6 2 C4.68 2 3.36 2 2 2 C2 2.66 2 3.32 2 4 C1.01 4 0.02 4 -1 4 C-1 5.65 -1 7.3 -1 9 C-1.99 9 -2.98 9 -4 9 C-3.34 6.69 -2.68 4.38 -2 2 C-1.34 2 -0.68 2 0 2 C0 1.34 0 0.68 0 0 Z " fill="#8D5E53" transform="translate(67,16)"/>
<path d="M0 0 C0.94875 0.66 1.8975 1.32 2.875 2 C5.66238955 4.17968457 5.66238955 4.17968457 8 4 C8 4.66 8 5.32 8 6 C5.36 6 2.72 6 0 6 C-1.125 2.25 -1.125 2.25 0 0 Z " fill="#79523E" transform="translate(84,93)"/>
<path d="M0 0 C0.99 0.33 1.98 0.66 3 1 C2.67 2.32 2.34 3.64 2 5 C0.68 5 -0.64 5 -2 5 C-2 6.65 -2 8.3 -2 10 C-2.66 9.34 -3.32 8.68 -4 8 C-3.625 5.875 -3.625 5.875 -3 4 C-2.34 4 -1.68 4 -1 4 C-0.67 2.68 -0.34 1.36 0 0 Z " fill="#4A4A4C" transform="translate(34,56)"/>
<path d="M0 0 C3.3 0.33 6.6 0.66 10 1 C10 1.66 10 2.32 10 3 C4.58461538 4.23076923 4.58461538 4.23076923 1.625 3.0625 C1.08875 2.711875 0.5525 2.36125 0 2 C0 1.34 0 0.68 0 0 Z " fill="#251710" transform="translate(56,72)"/>
<path d="M0 0 C1.65 0 3.3 0 5 0 C5.66 1.98 6.32 3.96 7 6 C6.01 6 5.02 6 4 6 C3.67 6.66 3.34 7.32 3 8 C3 5.69 3 3.38 3 1 C2.01 0.67 1.02 0.34 0 0 Z " fill="#66473D" transform="translate(77,2)"/>
<path d="M0 0 C0.99 0 1.98 0 3 0 C2.4409112 3.24271506 1.5867822 4.93057424 -1 7 C-1.66 7 -2.32 7 -3 7 C-3 5.68 -3 4.36 -3 3 C-2.01 2.67 -1.02 2.34 0 2 C0 1.34 0 0.68 0 0 Z " fill="#B99994" transform="translate(72,0)"/>
<path d="M0 0 C4.455 0.99 4.455 0.99 9 2 C8.67 2.66 8.34 3.32 8 4 C5.69 4 3.38 4 1 4 C0.67 2.68 0.34 1.36 0 0 Z " fill="#131209" transform="translate(36,69)"/>
<path d="M0 0 C0.99 0.495 0.99 0.495 2 1 C2 1.66 2 2.32 2 3 C3.65 3 5.3 3 7 3 C6.67 3.99 6.34 4.98 6 6 C3.03 5.505 3.03 5.505 0 5 C0 3.35 0 1.7 0 0 Z " fill="#9F695A" transform="translate(38,61)"/>
<path d="M0 0 C0.66 0 1.32 0 2 0 C2.66 1.98 3.32 3.96 4 6 C2.02 5.34 0.04 4.68 -2 4 C-1.34 2.68 -0.68 1.36 0 0 Z " fill="#2B2D2A" transform="translate(94,68)"/>
<path d="M0 0 C-0.639375 0.309375 -1.27875 0.61875 -1.9375 0.9375 C-3.93610821 1.8345163 -3.93610821 1.8345163 -5 3 C-6.99958364 3.04080783 -9.00045254 3.04254356 -11 3 C-9.68 2.67 -8.36 2.34 -7 2 C-7 1.34 -7 0.68 -7 0 C-3.86650268 -1.04449911 -3.01031744 -0.93423645 0 0 Z " fill="#2B1E17" transform="translate(43,59)"/>
<path d="M0 0 C0.66 0 1.32 0 2 0 C1.67 3.3 1.34 6.6 1 10 C-1.16139576 6.75790636 -1.28794018 5.74322232 -1 2 C-0.67 1.34 -0.34 0.68 0 0 Z " fill="#634436" transform="translate(81,12)"/>
<path d="M0 0 C1.65 0.33 3.3 0.66 5 1 C4.67 1.99 4.34 2.98 4 4 C2.35 3.67 0.7 3.34 -1 3 C-0.67 2.01 -0.34 1.02 0 0 Z " fill="#87472B" transform="translate(70,9)"/>
<path d="M0 0 C1.485 0.99 1.485 0.99 3 2 C3.1875 5.125 3.1875 5.125 3 8 C1.68 7.01 0.36 6.02 -1 5 C-0.67 3.35 -0.34 1.7 0 0 Z " fill="#90492F" transform="translate(77,10)"/>
<path d="M0 0 C0.66 0 1.32 0 2 0 C2 3.3 2 6.6 2 10 C1.34 8.68 0.68 7.36 0 6 C-0.66 5.67 -1.32 5.34 -2 5 C-1.34 3.35 -0.68 1.7 0 0 Z " fill="#30241A" transform="translate(89,99)"/>
<path d="M0 0 C0.99 0 1.98 0 3 0 C3 0.66 3 1.32 3 2 C5.31 2 7.62 2 10 2 C10 2.33 10 2.66 10 3 C7.69 3 5.38 3 3 3 C2.67 3.66 2.34 4.32 2 5 C1.34 3.35 0.68 1.7 0 0 Z " fill="#512C20" transform="translate(67,22)"/>
<path d="M0 0 C0.33 0.99 0.66 1.98 1 3 C-0.32 3 -1.64 3 -3 3 C-3.33 3.99 -3.66 4.98 -4 6 C-4.66 5.01 -5.32 4.02 -6 3 C-2.25 0 -2.25 0 0 0 Z " fill="#857A77" transform="translate(72,0)"/>
<path d="M0 0 C0.99 0 1.98 0 3 0 C3 1.32 3 2.64 3 4 C1.02 4 -0.96 4 -3 4 C-2.67 3.34 -2.34 2.68 -2 2 C-1.34 2 -0.68 2 0 2 C0 1.34 0 0.68 0 0 Z " fill="#2C2D28" transform="translate(41,50)"/>
<path d="M0 0 C2.475 0.495 2.475 0.495 5 1 C5 2.32 5 3.64 5 5 C2.525 4.01 2.525 4.01 0 3 C0 2.01 0 1.02 0 0 Z " fill="#886860" transform="translate(75,0)"/>
</svg>
